<?xml version="1.0" encoding="UTF-8"?>
<svg version="1.1" xmlns="http://www.w3.org/2000/svg" width="512" height="512">
<path d="M0 0 C3.85145947 3.06152367 7.5300386 6.28231699 11.16699219 9.59472656 C11.82957031 10.18640625 12.49214844 10.77808594 13.17480469 11.38769531 C32.72344019 29.79978224 45.87742147 58.05339068 47.34399414 84.82592773 C48.04325423 122.61661726 39.6655246 154.15367006 13.13720703 182.02514648 C-9.57020689 205.20213305 -40.40133671 217.35796928 -72.70800781 217.84472656 C-107.62032055 217.79805755 -137.56334166 203.78773294 -162.10253906 179.33300781 C-177.14560788 163.3942046 -186.73217523 143.77818424 -191.83300781 122.59472656 C-192.20232422 121.08845703 -192.20232422 121.08845703 -192.57910156 119.55175781 C-198.73020332 88.11750677 -191.01389004 55.21057868 -173.83300781 28.59472656 C-171.03585047 24.7181293 -168.03001981 21.14443384 -164.83300781 17.59472656 C-164.14980469 16.76972656 -163.46660156 15.94472656 -162.76269531 15.09472656 C-123.30070797 -31.50245406 -47.50914405 -36.4228334 0 0 Z " fill="#ff6d6d" transform="translate(308.8330078125,23.4052734375)"/>
<path d="M0 0 C3.993647 -0.05075187 7.88658003 0.14722392 11.86035156 0.56298828 C12.74914001 0.65502533 13.63792847 0.74706238 14.5536499 0.84188843 C15.22494934 0.91307892 15.89624878 0.98426941 16.58789062 1.05761719 C16.58604704 1.90538538 16.58420345 2.75315357 16.582304 3.62661171 C16.53803858 24.30257648 16.50499214 44.97853303 16.48426628 65.65453529 C16.47397573 75.65349663 16.45995807 85.65242623 16.43701172 95.65136719 C16.41700962 104.3715366 16.40415807 113.09168303 16.39971364 121.81187475 C16.39711776 126.42450457 16.39106311 131.03706863 16.37643051 135.64967728 C16.36273857 140.00149859 16.35869117 144.35322778 16.36167526 148.70506859 C16.36113025 150.29239975 16.35722257 151.87973437 16.34947968 153.46704674 C16.29125118 166.03269822 17.03052763 178.25683862 20.90039062 190.30761719 C21.11332764 190.97164551 21.32626465 191.63567383 21.5456543 192.31982422 C23.16521919 197.20163013 25.19114146 201.73736485 27.66992188 206.23730469 C28.58789062 208.05761719 28.58789062 208.05761719 28.58789062 210.05761719 C1.26689346 210.10437177 -26.0540977 210.139623 -53.37512684 210.16124153 C-66.06121471 210.17154692 -78.74727771 210.18559318 -91.43334961 210.20849609 C-102.49262738 210.22845251 -113.55188712 210.24133899 -124.61118239 210.24579418 C-130.46505731 210.24839773 -136.31888066 210.25450193 -142.17273903 210.2690773 C-147.68758524 210.28269675 -153.20235887 210.286831 -158.71722031 210.28383255 C-160.7363633 210.28438076 -162.75550882 210.2883321 -164.77463722 210.29602814 C-181.72790462 210.3574529 -197.21521 210.1143098 -210.34960938 197.80761719 C-218.93952898 188.54855529 -221.7225865 177.83129375 -221.68676758 165.49560547 C-221.69187851 164.57415741 -221.69698944 163.65270935 -221.70225525 162.70333862 C-221.71607687 159.67813496 -221.71520004 156.65316104 -221.71289062 153.62792969 C-221.7167817 151.51097531 -221.72111722 149.3940217 -221.72587585 147.27706909 C-221.73332216 142.8472846 -221.73305836 138.41757984 -221.7277832 133.98779297 C-221.72199155 128.3300583 -221.73892017 122.67265131 -221.76212788 117.01497078 C-221.77690794 112.64474603 -221.77773109 108.27459942 -221.77461815 103.9043541 C-221.77512924 101.81929755 -221.78032682 99.73423638 -221.79043007 97.64920425 C-221.80285982 94.72539639 -221.79596367 91.80221687 -221.78442383 88.87841797 C-221.79206757 88.02926819 -221.7997113 87.18011841 -221.80758667 86.30523682 C-221.71414728 75.51577153 -218.21410168 66.50852737 -211.09960938 58.43261719 C-203.98283493 52.14337465 -196.56054844 47.86130242 -187.97460938 43.80761719 C-186.78303223 43.24187988 -185.59145508 42.67614258 -184.36376953 42.09326172 C-125.96025056 14.58343096 -64.36332865 1.53742364 0 0 Z " fill="#ff6d6d" transform="translate(231.412109375,288.9423828125)"/>
<path d="M0 0 C17.66538945 0 17.66538945 0 24.6875 1.5 C25.51926758 1.67450684 26.35103516 1.84901367 27.20800781 2.02880859 C49.14684315 6.99243919 67.5195442 17.99017977 84 33 C84.66257812 33.59167969 85.32515625 34.18335938 86.0078125 34.79296875 C105.556448 53.20505567 118.71042928 81.45866412 120.17700195 108.23120117 C120.87626204 146.0218907 112.49853241 177.55894349 85.97021484 205.43041992 C62.39926623 229.48879845 33.19778416 239.15567866 0 241 C0 161.47 0 81.94 0 0 Z " fill="#ff6d6d" transform="translate(236,0)"/>
<path d="M0 0 C1.28915314 -0.00428513 2.57830627 -0.00857025 3.90652466 -0.01298523 C6.62115625 -0.02039624 9.33565767 -0.02019385 12.05029297 -0.01489258 C15.49499528 -0.00910572 18.93915852 -0.02603452 22.3837719 -0.04923725 C25.71420162 -0.06768276 29.04451978 -0.06378596 32.375 -0.0625 C34.20368118 -0.07631462 34.20368118 -0.07631462 36.06930542 -0.09040833 C46.89991284 -0.03265318 56.78977664 1.94066755 66.4453125 6.92578125 C67.45706543 7.44301758 67.45706543 7.44301758 68.48925781 7.97070312 C76.39980252 12.18512053 84.2117591 17.74025308 87.765625 26.26953125 C89.48194275 32.55463851 88.77241274 37.90258972 85.59765625 43.57421875 C82.92203031 47.19081406 79.49337176 48.9097615 75.3203125 50.30078125 C68.74160712 51.09230202 63.790166 50.0490474 58.3203125 46.30078125 C56.36457031 44.58658491 54.48616138 42.84398431 52.66796875 40.984375 C45.81737535 36.07155344 37.9705157 35.8537731 29.8203125 35.90234375 C28.74458984 35.89947357 27.66886719 35.89660339 26.56054688 35.89364624 C24.29817169 35.89161512 22.03577856 35.89707789 19.7734375 35.90966797 C16.33032589 35.92573452 12.88838803 35.90978595 9.4453125 35.890625 C7.2369766 35.8926076 5.02864143 35.89645162 2.8203125 35.90234375 C1.80130859 35.89627106 0.78230469 35.89019836 -0.26757812 35.88394165 C-9.21953174 35.97109623 -18.15837981 37.68214061 -24.6796875 44.30078125 C-28.78784235 50.34594176 -30.80042657 55.44518696 -30.82685852 62.78236389 C-30.83053521 63.44349054 -30.8342119 64.10461719 -30.838 64.78577799 C-30.84903102 67.00571204 -30.85287973 69.22559928 -30.85668945 71.44555664 C-30.86295473 73.03566639 -30.86960158 74.62577467 -30.87660217 76.21588135 C-30.89764373 81.4433897 -30.90800711 86.67089833 -30.91796875 91.8984375 C-30.92201678 93.69952345 -30.92613371 95.50060924 -30.93031883 97.30169487 C-30.94937355 105.76672333 -30.96360196 114.23174307 -30.9719308 122.69678885 C-30.9816938 132.45775875 -31.00798757 142.21850132 -31.04843169 151.97939116 C-31.07863763 159.52944123 -31.09340406 167.07942632 -31.09671181 174.62953562 C-31.09905791 179.13587335 -31.10796023 183.64196831 -31.13317299 188.14824104 C-31.15653612 192.3926616 -31.16065405 196.63668098 -31.15041161 200.88114929 C-31.14991807 202.43308284 -31.1561844 203.98503668 -31.16996765 205.5369091 C-31.25027352 215.12039284 -30.94973045 223.8861907 -24.78515625 231.703125 C-24.15222656 232.20972656 -23.51929688 232.71632813 -22.8671875 233.23828125 C-22.24199219 233.76292969 -21.61679687 234.28757812 -20.97265625 234.828125 C-13.74091938 239.47269877 -7.74177864 239.75618685 0.71875 239.734375 C1.90828278 239.73961685 3.09781555 239.7448587 4.32339478 239.7502594 C6.83310162 239.7566668 9.34283855 239.75535928 11.85253906 239.74682617 C15.67567917 239.73832491 19.49732009 239.76708469 23.3203125 239.79882812 C25.76562456 239.80044061 28.21093924 239.7998617 30.65625 239.796875 C31.79089691 239.80810898 32.92554382 239.81934296 34.09457397 239.83091736 C43.58114971 239.74835333 50.33974908 237.49136142 57.5078125 231.17578125 C61.55309895 227.62022268 65.17060219 225.45826677 70.6640625 225.18359375 C77.18833124 225.91639205 81.14885112 227.89456729 85.6328125 232.86328125 C88.97111973 237.68528058 88.91865302 242.62955368 88.3203125 248.30078125 C83.72295061 259.41107249 73.06599292 266.66775661 62.3203125 271.30078125 C52.84844542 274.93587304 44.18529295 275.90068736 34.10546875 275.83203125 C32.67784869 275.83473694 31.25023045 275.83862821 29.82261658 275.84362793 C26.8516968 275.84947453 23.88126296 275.84112047 20.91040039 275.82226562 C17.1440682 275.79949912 13.37887825 275.8126144 9.61258793 275.83655548 C6.67044313 275.85116434 3.72855919 275.84633916 0.78640556 275.83604431 C-0.60035914 275.83341729 -1.98714928 275.83650103 -3.3738842 275.84596252 C-20.58934875 275.9376885 -36.01664775 271.1924211 -48.80859375 259.3046875 C-62.89441588 244.21903666 -67.14919047 228.32204692 -67.06787109 208.25390625 C-67.07194352 206.55586409 -67.07728915 204.85782459 -67.08380127 203.15979004 C-67.09740091 198.57713744 -67.0922068 193.99468895 -67.08266401 189.41203308 C-67.07502911 184.5992277 -67.08212361 179.78643893 -67.08682251 174.97363281 C-67.09226895 166.89384854 -67.08511769 158.81414673 -67.07080078 150.734375 C-67.05447643 141.41451025 -67.05976572 132.09484244 -67.07628 122.77498245 C-67.08992661 114.75000965 -67.09179904 106.72509587 -67.08396399 98.7001152 C-67.0793049 93.91727219 -67.07861382 89.13452152 -67.08857346 84.35168457 C-67.0972872 79.85355992 -67.09114131 75.35568735 -67.07389069 70.85758972 C-67.06994926 69.21417152 -67.07101932 67.57073183 -67.07767868 65.92732239 C-67.14466215 47.70674962 -62.72677367 31.77950072 -49.93725586 18.36328125 C-35.79073602 4.2143584 -19.47462269 -0.01451092 0 0 Z " fill="#F34235" transform="translate(347.6796875,236.69921875)"/>
<path d="M0 0 C3.03010948 2.15588369 5.57006302 4.38960396 8.20829773 7.00361633 C8.6725264 7.46112778 9.13675507 7.91863922 9.61505127 8.39001465 C11.13162604 9.88775817 12.64070546 11.39277283 14.14897156 12.89888 C15.20923758 13.95270993 16.26964959 15.00639299 17.3302002 16.05993652 C19.54508068 18.26288303 21.7558305 20.46988222 23.9641571 22.67939758 C26.78508683 25.50053078 29.61954142 28.30763701 32.45771313 31.11140919 C34.64968753 33.28108101 36.8324452 35.4598491 39.01276588 37.64122581 C40.05368316 38.67979398 41.09781987 39.71514639 42.14529991 40.74709511 C43.61224386 42.19430214 45.06580792 43.65381042 46.51689148 45.11689758 C47.34484726 45.94200333 48.17280304 46.76710907 49.02584839 47.61721802 C52.80586821 52.26958116 54.81141996 57.18935108 54.50057983 63.24598694 C53.02110316 72.19368349 45.87052051 78.12346116 39.74272156 84.17622375 C38.71079872 85.20830188 37.67954498 86.2410494 36.64892578 87.27442932 C34.49579845 89.42893471 32.33592302 91.57635664 30.17070007 93.71870422 C27.40842941 96.45257448 24.66201983 99.2017502 21.92029095 101.95620346 C19.79568654 104.08779236 17.66372915 106.21190189 15.52944374 108.33379364 C14.51439774 109.3443533 13.50139313 110.35696805 12.49056053 111.37174225 C0.50792022 123.37922285 0.50792022 123.37922285 -6.64009094 124.820755 C-13.26345174 124.81091346 -17.88303451 123.8302213 -22.83149719 119.25434875 C-26.92601105 114.78866084 -27.31135615 110.07873929 -27.46040344 104.195755 C-25.82695614 96.55609155 -19.97464076 90.9908676 -14.51899719 85.75434875 C-13.55123352 84.80688782 -13.55123352 84.80688782 -12.56391907 83.84028625 C-10.99317392 82.30444655 -9.41583833 80.77613745 -7.83149719 79.25434875 C-8.90811615 79.24848251 -9.98473511 79.24261627 -11.09397888 79.23657227 C-21.246396 79.17932777 -31.39859928 79.10655697 -41.55079842 79.01863384 C-46.76999997 78.97393063 -51.98912348 78.93467427 -57.20845032 78.90791321 C-62.24659539 78.88187992 -67.2844401 78.84147704 -72.32239914 78.79116249 C-74.24325191 78.774494 -76.16415663 78.76297962 -78.08507156 78.75673485 C-80.77837263 78.74709364 -83.47090529 78.71903409 -86.16401672 78.6867218 C-86.95595932 78.68815689 -87.74790192 78.68959198 -88.56384277 78.69107056 C-94.0379402 78.59835551 -98.28802929 77.57428148 -102.47602844 73.75434875 C-107.12556677 67.78303531 -107.70175289 62.66164146 -106.83149719 55.25434875 C-104.74917549 49.3771417 -101.55295648 46.7806184 -96.0892334 44.1193161 C-92.40566131 42.70809296 -88.93617108 42.68310126 -85.02876282 42.70845032 C-84.18878754 42.69811264 -83.34881226 42.68777496 -82.48338318 42.67712402 C-79.73463831 42.64786201 -76.98663508 42.6462004 -74.23774719 42.64497375 C-72.32102569 42.62998087 -70.40431706 42.6132514 -68.48762512 42.59486389 C-63.46369307 42.55130266 -58.43993527 42.53121619 -53.41584778 42.51612854 C-48.28085576 42.49651692 -43.14605081 42.45455149 -38.01118469 42.414505 C-27.95134672 42.33932454 -17.89155087 42.28895947 -7.83149719 42.25434875 C-8.33600403 41.76555237 -8.84051086 41.27675598 -9.36030579 40.77314758 C-11.6502807 38.54568408 -13.92841673 36.30647288 -16.20649719 34.06684875 C-17.00055969 33.29792297 -17.79462219 32.52899719 -18.61274719 31.73677063 C-19.37329407 30.98589172 -20.13384094 30.23501282 -20.91743469 29.46138 C-21.97003479 28.43234558 -21.97003479 28.43234558 -23.04389954 27.38252258 C-26.85799749 22.84175614 -27.22184851 18.40342451 -27.07759094 12.68403625 C-26.56715457 7.64448988 -24.57287794 4.97925437 -21.01899719 1.50434875 C-14.33856664 -3.21124928 -7.15596525 -4.41173655 0 0 Z " fill="#F34235" transform="translate(447.8314971923828,313.7456512451172)"/>
<path d="M0 0 C11.55 0 23.1 0 35 0 C35.02578125 5.73117187 35.0515625 11.46234375 35.078125 17.3671875 C35.10331214 21.01306463 35.12965938 24.65886034 35.16015625 28.3046875 C35.20837887 34.08268468 35.25246567 39.86049322 35.27099609 45.63867188 C35.28621753 50.30084874 35.32075969 54.96252977 35.36830902 59.62448502 C35.38306646 61.39688922 35.39103776 63.16936424 35.39188385 64.94182968 C35.29176604 80.07842169 35.29176604 80.07842169 41.89453125 93.40234375 C42.52746094 93.90894531 43.16039062 94.41554688 43.8125 94.9375 C44.43769531 95.46214844 45.06289063 95.98679687 45.70703125 96.52734375 C52.93876812 101.17191752 58.93790886 101.4554056 67.3984375 101.43359375 C68.58797028 101.4388356 69.77750305 101.44407745 71.00308228 101.44947815 C73.51278912 101.45588555 76.02252605 101.45457803 78.53222656 101.44604492 C82.35536667 101.43754366 86.17700759 101.46630344 90 101.49804688 C92.44531206 101.49965936 94.89062674 101.49908045 97.3359375 101.49609375 C99.03790787 101.51294472 99.03790787 101.51294472 100.77426147 101.53013611 C110.26083721 101.44757208 117.01943658 99.19058017 124.1875 92.875 C128.23278645 89.31944143 131.85028969 87.15748552 137.34375 86.8828125 C143.86801874 87.6156108 147.82853862 89.59378604 152.3125 94.5625 C155.65080723 99.38449933 155.59834052 104.32877243 155 110 C150.40263811 121.11029124 139.74568042 128.36697536 129 133 C119.52813292 136.63509179 110.86498045 137.59990611 100.78515625 137.53125 C99.35753619 137.53395569 97.92991795 137.53784696 96.50230408 137.54284668 C93.5313843 137.54869328 90.56095046 137.54033922 87.59008789 137.52148438 C83.8237557 137.49871787 80.05856575 137.51183315 76.29227543 137.53577423 C73.35013063 137.55038309 70.40824669 137.54555791 67.46609306 137.53526306 C66.07932836 137.53263604 64.69253822 137.53571978 63.3058033 137.54518127 C46.09033875 137.63690725 30.66303975 132.89163985 17.87109375 121.00390625 C2.72012095 104.77749906 -0.47557315 88.23275872 -0.29296875 66.89453125 C-0.28736393 64.95969473 -0.28309802 63.02485392 -0.28010559 61.0900116 C-0.26872658 56.03148357 -0.23932017 50.97321961 -0.20599365 45.91479492 C-0.17514201 40.73945689 -0.16156818 35.56407563 -0.14648438 30.38867188 C-0.11444294 20.25898071 -0.06173276 10.12955377 0 0 Z " fill="#CC382D" transform="translate(281,375)"/>
<path d="M0 0 C52.8 0 105.6 0 160 0 C160 10.73032441 154.08319284 15.13932751 146.79127502 22.51226807 C145.88175583 23.42087585 144.97223663 24.32948364 144.03515625 25.265625 C143.07379432 26.23088447 142.11265244 27.19636315 141.15171814 28.16204834 C139.14887104 30.17230655 137.1422603 32.17871302 135.13305664 34.18261719 C132.57157511 36.73828852 130.02168321 39.30518935 127.47470951 41.87530899 C125.49728309 43.86752815 123.51290781 45.85271259 121.52651787 47.83599091 C120.12915855 49.23410567 118.73833419 50.63874219 117.34767151 52.04351807 C105.7325234 63.57463971 105.7325234 63.57463971 97.5625 63.5625 C91.9446015 63.33099319 88.12821036 61.81738041 84 58 C79.90548614 53.53431208 79.52014104 48.82439053 79.37109375 42.94140625 C81.00454105 35.30174279 86.85685644 29.73651885 92.3125 24.5 C93.28026367 23.55253906 93.28026367 23.55253906 94.26757812 22.5859375 C95.83832328 21.0500978 97.41565886 19.5217887 99 18 C97.92338104 17.99413376 96.84676208 17.98826752 95.73751831 17.98222351 C85.58510119 17.92497902 75.43289791 17.85220821 65.28069878 17.76428509 C60.06149722 17.71958188 54.84237372 17.68032552 49.62304688 17.65356445 C44.5849018 17.62753117 39.5470571 17.58712828 34.50909805 17.53681374 C32.58824529 17.52014525 30.66734057 17.50863086 28.74642563 17.50238609 C26.05312456 17.49274489 23.3605919 17.46468534 20.66748047 17.43237305 C19.87553787 17.43380814 19.08359528 17.43524323 18.26765442 17.4367218 C11.93751698 17.32950796 7.86179356 15.77904718 3.1875 11.3125 C1 8 1 8 0 0 Z " fill="#CC382D" transform="translate(341,375)"/>
<path d="M0 0 C4.29 0.33 8.58 0.66 13 1 C12.99555878 3.06110016 12.99111755 5.12220032 12.98654175 7.24575806 C12.94559595 26.69613548 12.91587297 46.14650719 12.89637566 65.59691811 C12.8860851 75.59587944 12.87206744 85.59480904 12.84912109 95.59375 C12.82911899 104.31391942 12.81626744 113.03406584 12.81182301 121.75425756 C12.80922714 126.36688738 12.80317249 130.97945145 12.78853989 135.59206009 C12.77484794 139.9438814 12.77080054 144.29561059 12.77378464 148.6474514 C12.77323962 150.23478256 12.76933194 151.82211718 12.76158905 153.40942955 C12.70336056 165.97508103 13.44263701 178.19922143 17.3125 190.25 C17.52543701 190.91402832 17.73837402 191.57805664 17.95776367 192.26220703 C19.57732856 197.14401294 21.60325083 201.67974767 24.08203125 206.1796875 C25 208 25 208 25 210 C17.08 210 9.16 210 1 210 C0.67 140.7 0.34 71.4 0 0 Z " fill="#ff6d6d" transform="translate(235,289)"/>
</svg>
